<?xml version="1.0" encoding="UTF-8" standalone="no"?>
<!-- Generator: Adobe Illustrator 21.0.2, SVG Export Plug-In . SVG Version: 6.00 Build 0)  -->
<!DOCTYPE svg  PUBLIC '-//W3C//DTD SVG 1.1//EN'  'http://www.w3.org/Graphics/SVG/1.1/DTD/svg11.dtd'>
<svg id="Layer_1" style="enable-background:new 0 0 137 37" xmlns="http://www.w3.org/2000/svg" xml:space="preserve" height="37px" viewBox="0 0 137 37" width="137px" version="1.1" y="0px" x="0px" xmlns:xlink="http://www.w3.org/1999/xlink">
<style type="text/css">
	.st0{fill:#1D202D;}
</style>
	<path class="st0" d="m51.9 23.8h-4v-2.4h3c0.1 0 0.2-0.1 0.2-0.2v-1.4c0-0.1-0.1-0.2-0.2-0.2h-3v-2.4h3.9c0.1 0 0.2-0.1 0.2-0.2v-1.3c0-0.1-0.1-0.2-0.2-0.2h-5.7c-0.1 0-0.2 0.1-0.2 0.2v9.6c0 0.1 0.1 0.2 0.2 0.2h5.8c0.1 0 0.2-0.1 0.2-0.2v-1.4c0-0.1-0.1-0.1-0.2-0.1z"/>
	<path class="st0" d="m64.1 15.6h-1.7c-0.1 0-0.2 0.1-0.2 0.2v6.1l-4.6-6.2-0.1-0.1h-1.7c-0.1 0-0.2 0.1-0.2 0.2v9.6c0 0.1 0.1 0.2 0.2 0.2h1.7c0.1 0 0.2-0.1 0.2-0.2v-6.1l4.6 6.2 0.1 0.1h1.7c0.1 0 0.2-0.1 0.2-0.2v-9.6c0-0.2-0.1-0.2-0.2-0.2z"/>
	<path class="st0" d="m75.1 21.7c-0.1 0-0.2 0-0.2 0.1-0.6 1.3-1.6 1.9-2.9 1.9-1.7 0-2.9-1.3-2.9-3.4 0-2.2 1.4-3.3 3.1-3.3 0.8 0 1.8 0.3 2.5 1.2 0.1 0.1 0.2 0.1 0.2 0l1.2-1.1c0.1-0.1 0.1-0.2 0-0.2-1-1.2-2.5-1.7-3.8-1.7-2.6 0-5.2 1.8-5.2 5.3 0 3.2 2.3 5.2 4.9 5.2 1.9 0 3.7-1 4.5-2.9 0-0.1 0-0.2-0.1-0.2l-1.3-0.9z"/>
	<path class="st0" d="m87.4 15.6h-1.7c-0.1 0-0.2 0.1-0.2 0.2v3.9h-4.3v-3.9c0-0.1-0.1-0.2-0.2-0.2h-1.7c-0.1 0-0.2 0.1-0.2 0.2v9.6c0 0.1 0.1 0.2 0.2 0.2h1.7c0.1 0 0.2-0.1 0.2-0.2v-3.9h4.3v3.9c0 0.1 0.1 0.2 0.2 0.2h1.7c0.1 0 0.2-0.1 0.2-0.2v-9.6c-0.1-0.2-0.1-0.2-0.2-0.2z"/>
	<path class="st0" d="m101.3 15.6h-1.9c-0.1 0-0.1 0-0.1 0.1l-2.9 5.2-2.9-5.3c0-0.1-0.1-0.1-0.1-0.1h-1.9c-0.1 0-0.2 0.1-0.2 0.2v9.6c0 0.1 0.1 0.2 0.2 0.2h1.5c0.1 0 0.2-0.1 0.2-0.2v-6.1l2.3 4.1c0 0.1 0.1 0.1 0.1 0.1h1.5c0.1 0 0.1 0 0.1-0.1l2.3-4.1v6.1c0 0.1 0.1 0.2 0.2 0.2h1.7c0.1 0 0.2-0.1 0.2-0.2v-9.6c-0.1-0.1-0.2-0.1-0.3-0.1z"/>
	<path class="st0" d="m109.9 15.6h-1.7c-0.1 0-0.1 0-0.2 0.1l-3.8 9.6c0 0.1 0 0.2 0.2 0.2h1.8c0.1 0 0.1 0 0.2-0.1l0.8-2.1h3.7l0.8 2.1c0 0.1 0.1 0.1 0.2 0.1h1.8c0.1 0 0.2-0.1 0.2-0.2l-3.7-9.6c-0.2-0.1-0.2-0.1-0.3-0.1zm-2 5.8l1.1-3 1.1 3h-2.2z"/>
	<path class="st0" d="m121.9 21.1c1.3-0.6 1.8-1.7 1.8-2.7 0-1.6-1.1-2.9-3.1-2.9h-3.8c-0.1 0-0.2 0.1-0.2 0.2v9.6c0 0.1 0.1 0.2 0.2 0.2h1.7c0.1 0 0.2-0.1 0.2-0.2v-3.8h1.1l2.3 3.9c0 0.1 0.1 0.1 0.1 0.1h2c0.1 0 0.2-0.1 0.1-0.2l-2.4-4.2zm-1.7-1.3h-1.7v-2.6h1.7c0.8 0 1.4 0.6 1.4 1.3 0.1 0.7-0.5 1.3-1.4 1.3z"/>
	<path class="st0" d="m135.7 25.1l-4.5-4.9 4.2-4.5c0.1-0.1 0-0.3-0.1-0.3h-2.1s-0.1 0-0.1 0.1l-3.7 4.1v-4c0-0.1-0.1-0.2-0.2-0.2h-1.7c-0.1 0-0.2 0.1-0.2 0.2v9.6c0 0.1 0.1 0.2 0.2 0.2h1.7c0.1 0 0.2-0.1 0.2-0.2v-4.1l3.8 4.1 0.1 0.1h2.3c0.2 0.1 0.2 0 0.1-0.2z"/>
	<path class="st0" d="m40.6 20.1c0.9-0.3 1.6-1.2 1.6-2.2 0-1.3-1-2.4-3-2.4h-3.5c-0.1 0-0.2 0.1-0.2 0.2v9.6c0 0.1 0.1 0.2 0.2 0.2h3.6c2.2 0 3.3-1.6 3.3-3 0-1.3-1-2.2-2-2.4zm-3.2-2.9h1.6c0.6 0 1.2 0.3 1.2 1.1 0 0.7-0.6 1.2-1.3 1.2h-1.5v-2.3zm1.6 6.6h-1.6v-2.6h1.7c0.8 0 1.6 0.4 1.6 1.2-0.2 0.8-0.9 1.4-1.7 1.4z"/>
	<path class="st0" d="m18.4 29.2l-4.9 5c-0.5 0.5-0.5 1.1 0 1.6 0.2 0.2 0.5 0.3 0.7 0.3s0.6-0.1 0.7-0.3l5-5c0.5-0.5 0.5-1.1 0-1.6-0.4-0.4-1-0.4-1.5 0z"/>
	<path class="st0" d="m3.1 23.2c0-0.1 0.2-0.5 0.7-1.3 0.8-1.2 2.1-2.7 3.8-4.3l0.8-0.8c0.4-0.4 0.9-0.5 1.4-0.3l-0.1-0.1c-0.3-0.3-0.3-0.6 0-0.9l0.3-0.3c0.5-0.5 0.5-1.1 0-1.6s-1.1-0.5-1.6 0l-2.4 2.5c-1.7 1.8-3.1 3.5-4.1 4.9-0.7 1-0.8 1.6-0.9 1.8-0.1 0.6 0.3 1.2 0.8 1.3h0.3c0.5-0.1 0.9-0.3 1-0.9z"/>
	<path class="st0" d="m25.9 1.3l-15.5 15.5c0.6 0.6 0.6 1.4 0 1.8l-0.4 0.4-2.5 2.5c-4.5 4.5-5 6.5-5.1 6.9-0.1 0.6 0.3 1.2 0.9 1.3h0.2c0.6 0 0.9-0.4 1.1-0.8 0-0.1 0.2-0.5 0.7-1.4 0.6-0.9 1.7-2.4 3.8-4.5l0.8-0.8c0.4-0.4 0.9-0.5 1.4-0.3l-0.1-0.1c-0.3-0.3-0.3-0.6 0-0.9l0.3-0.3c0.5-0.5 0.5-1.1 0-1.6l-0.2-0.2 16.1-16c0.5-0.5 0.5-1.1 0-1.6-0.4-0.3-1.1-0.3-1.5 0.1z"/>
	<path class="st0" d="m23.4 10.6l-11.5 11.6c0.6 0.6 0.6 1.4 0 1.8l-0.4 0.4-2.4 2.4c-1.9 1.9-3.4 3.9-4.2 5.7-0.6 1.4-0.6 2.2-0.6 2.4 0 0.6 0.5 1.1 1.1 1.1s1.1-0.5 1.1-1.1c0 0 0-0.6 0.5-1.6 0.9-1.9 2.5-3.8 3.8-5.1l0.8-0.8c0.4-0.4 0.9-0.5 1.4-0.3l-0.1-0.1c-0.3-0.3-0.3-0.6 0-0.9l0.3-0.3c0.5-0.5 0.5-1.1 0-1.6l-0.2-0.2 12.1-12c0.5-0.5 0.5-1.1 0-1.6-0.6-0.2-1.2-0.2-1.7 0.2z"/>
	<path class="st0" d="m20.9 20l-7.6 7.6c0.6 0.6 0.6 1.4 0 1.8l-1.1 1.1c0.5 0.3 1 0.3 1.4-0.2l8.8-8.8c0.5-0.5 0.5-1.1 0-1.6-0.4-0.4-1-0.4-1.5 0.1z"/>
</svg>
